<svg id="pdf" width="48" height="60" viewBox="0 0 48 60" fill="none" xmlns="http://www.w3.org/2000/svg">
<path d="M35.1148 26.1292C35.2704 25.913 35.331 25.7744 35.355 25.6999C35.2266 25.6326 35.0563 25.4961 34.1278 25.4961C33.6004 25.4961 32.9382 25.5189 32.2363 25.6078C33.0876 26.2564 33.2954 26.5844 33.8521 26.5844C34.0954 26.5854 34.7931 26.5751 35.1148 26.1292Z" fill="#3C6F9E"/>
<path d="M15.2351 33.7576C15.3907 33.709 16.2994 33.2983 17.9924 30.2031C15.7594 31.4455 14.8507 32.4666 14.786 33.0417C14.7745 33.1369 14.7463 33.3873 15.2351 33.7576Z" fill="#3C6F9E"/>
<path d="M47.5752 40.3448V14.46C47.5752 13.6676 47.4791 13.081 47.0008 12.6062L34.8466 0.568966C34.482 0.207931 33.9765 0 33.4595 0H3.14766C1.90895 0 0.575195 0.947586 0.575195 3.0269V40.3448H47.5752ZM32.953 3.50793C32.953 3.03414 33.5305 2.79724 33.8689 3.13241L44.4126 13.5755C44.751 13.9107 44.5118 14.4828 44.0335 14.4828H32.953V3.50793ZM13.0375 32.85C13.2276 31.1659 15.3301 29.4031 19.2885 27.6072C20.8594 24.1976 22.354 19.9966 23.2449 16.4866C22.2025 14.2397 21.1894 11.3245 21.9278 9.61448C22.1868 9.01552 22.5096 8.55621 23.1122 8.35759C23.3503 8.27897 23.952 8.17966 24.1734 8.17966C24.6998 8.17966 25.1625 8.85104 25.4904 9.26483C25.7985 9.65379 26.4973 10.4783 25.1008 16.3014C26.5088 19.1814 28.5036 22.1152 30.415 24.1241C31.7842 23.879 32.9624 23.7538 33.9222 23.7538C35.5578 23.7538 36.549 24.1314 36.9532 24.9093C37.2874 25.5528 37.1506 26.3048 36.5459 27.1438C35.9641 27.9497 35.162 28.3759 34.2272 28.3759C32.9572 28.3759 31.4782 27.5814 29.829 26.0121C26.8659 26.6255 23.4047 27.72 20.6087 28.9314C19.7355 30.7666 18.8989 32.2448 18.1198 33.329C17.0513 34.8166 16.128 35.5086 15.2141 35.5086C14.8507 35.5086 14.5018 35.3917 14.2042 35.1714C13.1148 34.3614 12.9686 33.4624 13.0375 32.85Z" fill="#3C6F9E"/>
<path d="M15.9514 47.4404C15.8031 47.2376 15.5963 47.0679 15.3299 46.9314C15.0636 46.7948 14.7106 46.7266 14.2729 46.7266H12.9883V50.8562H14.5591C14.768 50.8562 14.9748 50.821 15.1806 50.7497C15.3853 50.6793 15.5733 50.5635 15.7446 50.4031C15.9159 50.2428 16.0537 50.0193 16.1582 49.7317C16.2626 49.4442 16.3148 49.0883 16.3148 48.6641C16.3148 48.4945 16.2908 48.2979 16.2438 48.0776C16.1958 47.8562 16.0986 47.6442 15.9514 47.4404Z" fill="#3C6F9E"/>
<path d="M24.4335 18.8008C23.6856 21.3601 22.7007 24.1232 21.6406 26.6256C23.8235 25.7866 26.1965 25.0542 28.4253 24.536C27.0153 22.9139 25.6064 20.8884 24.4335 18.8008Z" fill="#3C6F9E"/>
<path d="M0.575195 42.4141V57.9313C0.575195 58.9751 1.84942 60.0003 3.14766 60.0003H45.0027C46.301 60.0003 47.5752 58.9751 47.5752 57.9313V42.4141H0.575195ZM17.6999 50.0992C17.5192 50.5285 17.2665 50.8896 16.9427 51.1813C16.6189 51.473 16.2283 51.6996 15.7719 51.8599C15.3154 52.0203 14.8099 52.0999 14.2585 52.0999H12.9874V55.8623H11.2734V45.4389H14.3002C14.7473 45.4389 15.1901 45.5092 15.6277 45.651C16.0654 45.7927 16.4581 46.0048 16.8059 46.2872C17.1537 46.5696 17.4346 46.912 17.6487 47.3123C17.8628 47.7127 17.9704 48.1627 17.9704 48.6634C17.9715 49.192 17.8806 49.6699 17.6999 50.0992ZM28.2028 52.5603C28.0169 53.1685 27.7819 53.6775 27.4958 54.0882C27.2096 54.4989 26.8889 54.8216 26.5317 55.0575C26.1745 55.2934 25.8299 55.4692 25.4967 55.5882C25.1635 55.7061 24.8585 55.7816 24.5828 55.8148C24.3071 55.8458 24.1024 55.8623 23.9687 55.8623H19.9852V45.4389H23.155C24.0407 45.4389 24.8188 45.5785 25.4894 45.8558C26.1599 46.133 26.7176 46.5044 27.1605 46.9658C27.6033 47.4272 27.9334 47.9537 28.1527 48.5423C28.371 49.131 28.4807 49.7372 28.4807 50.3599C28.4817 51.2185 28.3888 51.952 28.2028 52.5603ZM37.5485 46.7258H32.7075V50.0072H37.1057V51.1668H32.7075V55.8623H30.9654V45.4389H37.5485V46.7258Z" fill="#3C6F9E"/>
<path d="M25.9188 47.8761C25.619 47.5316 25.2117 47.2533 24.6978 47.0413C24.184 46.8292 23.5176 46.7227 22.6988 46.7227H21.6992V54.6147H23.3985C24.56 54.6147 25.3976 54.2475 25.9115 53.512C26.4253 52.7764 26.6823 51.7109 26.6823 50.3154C26.6823 49.882 26.63 49.4527 26.5256 49.0285C26.4201 48.6044 26.2185 48.2206 25.9188 47.8761Z" fill="#3C6F9E"/>
<path d="M23.7992 10.047C23.6969 10.0811 22.4101 11.8646 23.8995 13.3739C24.8907 11.186 23.8441 10.0325 23.7992 10.047Z" fill="#3C6F9E"/>
</svg>
