<svg width="48" height="60" viewBox="0 0 48 60" fill="none" xmlns="http://www.w3.org/2000/svg">
<path d="M32.9892 0H0.575195V60H47.5752V14.586L32.9892 0ZM28.5752 31C28.5752 31.553 28.1272 32 27.5752 32H17.5752C17.0232 32 16.5752 31.553 16.5752 31C16.5752 30.447 17.0232 30 17.5752 30H27.5752C28.1272 30 28.5752 30.447 28.5752 31ZM10.3372 23.479L10.6572 22.738C10.9482 22.064 11.4262 21.531 12.0392 21.197L14.2432 20.11C13.2742 19.488 12.5762 18.552 12.1602 17.317C11.4762 16.9 11.0452 16.159 11.0452 15.333V14.666C11.0452 13.998 11.3342 13.373 11.8232 12.936C11.9192 12.323 12.0772 11.747 12.2942 11.217C12.3962 10.97 12.4822 10.785 12.5512 10.635C12.5972 10.535 12.6552 10.411 12.6632 10.376C12.6662 10.344 12.6612 10.223 12.5772 9.803C12.5122 9.476 12.4692 9.176 12.4392 8.919C12.4022 8.597 12.5042 8.274 12.7182 8.034C13.1662 7.534 14.0392 7.557 14.4572 8.09C14.5332 8.187 14.6882 8.345 14.9912 8.549C15.5032 8.895 16.1992 9.051 16.9282 8.987C17.0752 8.975 17.2252 8.969 17.3792 8.969C21.2752 8.969 22.5622 11.022 22.9192 12.92C23.4192 13.358 23.7132 13.988 23.7132 14.665V15.332C23.7132 16.158 23.2822 16.899 22.5982 17.316C22.1802 18.556 21.4782 19.494 20.5032 20.117L22.6252 21.2C23.2572 21.517 23.7602 22.048 24.0722 22.731L24.4162 23.483L23.7422 23.962C21.8672 25.296 19.6672 26 17.3772 26C15.0792 26 12.8722 25.291 10.9932 23.948L10.3372 23.479ZM13.5752 31C13.5752 31.26 13.4652 31.52 13.2852 31.71C13.0952 31.89 12.8452 32 12.5752 32C12.3052 32 12.0452 31.89 11.8652 31.7C11.6852 31.519 11.5752 31.26 11.5752 31C11.5752 30.739 11.6852 30.479 11.8652 30.29C12.2252 29.93 12.9152 29.92 13.2852 30.29C13.4652 30.479 13.5752 30.739 13.5752 31ZM11.5752 36C11.5752 35.447 12.0232 35 12.5752 35H29.5752C30.1272 35 30.5752 35.447 30.5752 36C30.5752 36.553 30.1272 37 29.5752 37H12.5752C12.0232 37 11.5752 36.553 11.5752 36ZM16.7612 47.766C16.7302 48.684 15.7162 49.028 15.0542 48.473C14.1192 47.689 13.1832 46.906 12.2482 46.122C11.2582 45.292 12.6812 43.885 13.6622 44.707C14.0762 45.054 14.4902 45.4 14.9032 45.747C15.1712 43.486 15.9082 41.306 18.0992 40.165C19.2412 39.571 20.2532 41.297 19.1082 41.892C16.9382 43.023 16.8342 45.599 16.7612 47.766ZM31.7122 46.259C31.4662 45.922 28.2882 47.47 27.3792 47.142C26.6662 46.885 26.1312 46.557 25.6822 46.075C23.5602 47.226 21.1462 47.849 19.2752 45.816C18.4042 44.869 19.8142 43.451 20.6892 44.402C22.1782 46.021 24.0292 44.771 25.4452 43.902C25.9032 43.621 26.5512 43.793 26.8132 44.261C27.8472 46.104 30.3482 44.019 31.8052 44.129C32.5782 44.188 33.0142 44.671 33.4372 45.25C34.2012 46.293 32.4642 47.289 31.7122 46.259ZM35.2852 36.71C35.0952 36.89 34.8352 37 34.5752 37C34.3152 37 34.0552 36.89 33.8652 36.71C33.6752 36.52 33.5752 36.27 33.5752 36C33.5752 35.729 33.6852 35.479 33.8652 35.29C34.2452 34.92 34.9052 34.92 35.2852 35.29C35.4652 35.479 35.5752 35.739 35.5752 36C35.5752 36.27 35.4752 36.52 35.2852 36.71ZM40.2852 36.7C40.0952 36.89 39.8352 37 39.5752 37C39.3152 37 39.0552 36.89 38.8652 36.71C38.6752 36.52 38.5752 36.27 38.5752 36C38.5752 35.729 38.6852 35.479 38.8652 35.29C39.2452 34.92 39.9052 34.92 40.2852 35.29C40.4652 35.479 40.5752 35.739 40.5752 36C40.5752 36.26 40.4752 36.51 40.2852 36.7ZM39.5752 32H32.5752C32.0232 32 31.5752 31.553 31.5752 31C31.5752 30.447 32.0232 30 32.5752 30H39.5752C40.1272 30 40.5752 30.447 40.5752 31C40.5752 31.553 40.1272 32 39.5752 32ZM31.5752 16V2L45.5752 16H31.5752Z" fill="#3C6F9E"/>
</svg>
