<!-- Generated by IcoMoon.io -->
<svg version="1.1" xmlns="http://www.w3.org/2000/svg" width="640" height="640" viewBox="0 0 640 640">
<path fill="#fff" d="M448 160h-128v64h128v-64zM448 256h-128v32h128v-32zM288 160h-96v128h96v-128zM288 352h160v-32h-160v32zM384 416h64v-32h-64v32zM448 448h-256v32h256v-32zM352 384h-160v32h160v-32zM256 320h-64v32h64v-32zM544 32h-448c-17.696 0-32 14.304-32 32v512c0 17.664 14.304 32 32 32h448c17.696 0 32-14.336 32-32v-512c0-17.664-14.304-32-32-32zM512 544h-384v-448h384v448z"></path>
</svg>
