<!-- Generated by IcoMoon.io -->
<svg  version="1.1" xmlns="http://www.w3.org/2000/svg" width="64" height="64" viewBox="0 0 640 640">
<symbol id="education" viewBox="0 0 43 25">
<path  d="M106.56 256l213.44 128 320-192-320-192-320 192h320v64h-213.44zM0 256v256l64-71.040v-146.56l-64-38.4zM320 640l-224-134.4v-192l224 134.4 224-134.4v192l-224 134.4z" stroke="inherit"/>
</symbol>

	<symbol id="message" viewBox="0 0 43 25">
		<path d="M26.8468 13.8125L22.129 17.75C21.6064 17.4526 21.7351 17.5258 17.036 13.8125M26.8468 13.8125L41 2M26.8468 13.8125L41 23M2 2C9.58606 7.93572 14.194 11.5667 17.036 13.8125M17.036 13.8125L2 23M3 24H40C41.1046 24 42 23.1046 42 22V3C42 1.89543 41.1046 1 40 1H3C1.89543 1 1 1.89543 1 3V22C1 23.1046 1.89543 24 3 24Z" stroke="inherit"/>
	</symbol>

</svg>
