<!-- Generated by IcoMoon.io -->
<svg version="1.1" xmlns="http://www.w3.org/2000/svg" width="768" height="768" viewBox="0 0 768 768">
<path d="M223.5 160.5h448.5v63h-448.5v-63zM223.5 415.5v-63h448.5v63h-448.5zM223.5 607.5v-63h448.5v63h-448.5zM127.5 528q19.5 0 33.75 14.25t14.25 33.75-14.25 33.75-33.75 14.25-33.75-14.25-14.25-33.75 14.25-33.75 33.75-14.25zM127.5 144q19.5 0 33.75 13.5t14.25 34.5-14.25 34.5-33.75 13.5-33.75-13.5-14.25-34.5 14.25-34.5 33.75-13.5zM127.5 336q19.5 0 33.75 13.5t14.25 34.5-14.25 34.5-33.75 13.5-33.75-13.5-14.25-34.5 14.25-34.5 33.75-13.5z"></path>
</svg>
