<svg width="31" height="32" viewBox="0 0 31 32" fill="none" xmlns="http://www.w3.org/2000/svg">
<path d="M15.5 31.5C24.0668 31.5 31 24.5676 31 16C31 7.43317 24.0676 0.499997 15.5 0.499997C6.9331 0.499996 1.96706e-07 7.43241 -5.52296e-07 16C-1.30123e-06 24.5668 6.93235 31.5 15.5 31.5ZM6.95306 15.2774L11.65 10.5804C12.2885 9.94192 13.3946 10.3872 13.3946 11.3031L13.3946 12.1677L23.3241 12.1677C23.8885 12.1677 24.3461 12.6253 24.3461 13.1897L24.3461 18.8103C24.3461 19.3747 23.8885 19.8323 23.3241 19.8323L13.3946 19.8323L13.3946 20.697C13.3946 21.6073 12.2907 22.0607 11.65 21.4196L6.95306 16.7227C6.55394 16.3236 6.55395 15.6764 6.95306 15.2774Z" fill="#8A92A6"/>
</svg>
