<svg width="48" height="60" viewBox="0 0 48 60" fill="none" xmlns="http://www.w3.org/2000/svg">
<path d="M12.4259 44.5735C12.8176 43.918 13.0133 42.4366 13.0133 40.1331C13.0133 38.7232 12.769 37.7363 12.2821 37.1723C11.7935 36.6083 10.9393 36.3281 9.71951 36.3281H5.42578V45.5566H9.76968C11.1472 45.5567 12.0325 45.2289 12.4259 44.5735ZM7.08228 44.0827V37.8022H9.54617C10.3172 37.8022 10.8093 37.9852 11.0173 38.3551C11.2269 38.7251 11.3309 39.5911 11.3309 40.9516C11.3309 42.2681 11.2148 43.1195 10.9826 43.504C10.7504 43.8903 10.2376 44.0826 9.44397 44.0826H7.08228V44.0827Z" fill="#3C6F9E"/>
<path d="M17.5823 45.6337C19.3445 45.6337 20.4534 45.359 20.9126 44.8097C21.3718 44.2586 21.6004 42.9274 21.6004 40.8125C21.6004 38.8789 21.3717 37.6338 20.9159 37.0772C20.4585 36.5205 19.438 36.2422 17.8508 36.2422C16.0679 36.2422 14.9486 36.5242 14.4911 37.0882C14.0354 37.6522 13.8066 39.0328 13.8066 41.2319C13.8066 43.0812 14.0388 44.2769 14.5049 44.8189C14.9694 45.3627 15.9951 45.6337 17.5823 45.6337ZM15.7716 38.1959C15.9587 37.8938 16.6103 37.7437 17.7226 37.7437C18.7986 37.7437 19.4328 37.8846 19.6269 38.1666C19.8209 38.4486 19.9179 39.3623 19.9179 40.9076C19.9179 42.4494 19.8157 43.3723 19.6112 43.6762C19.405 43.9801 18.7899 44.1339 17.7606 44.1339C16.6864 44.1339 16.0383 43.9984 15.82 43.7274C15.6 43.4564 15.4908 42.6599 15.4908 41.3342C15.4909 39.5435 15.5845 38.4981 15.7716 38.1959Z" fill="#3C6F9E"/>
<path d="M26.1683 45.6337C27.6896 45.6337 28.6704 45.4469 29.1139 45.0697C29.5575 44.6924 29.7792 43.863 29.7792 42.5776V42.2608H28.1159L28.1263 42.6728C28.1263 43.2862 28.005 43.6818 27.759 43.863C27.513 44.0424 26.9793 44.134 26.158 44.134C25.1427 44.134 24.5414 43.971 24.356 43.6469C24.1706 43.321 24.0787 42.2755 24.0787 40.5086C24.0787 39.1975 24.1809 38.4083 24.3872 38.1428C24.595 37.8774 25.2119 37.7437 26.2411 37.7437C27.007 37.7437 27.499 37.8279 27.714 37.9964C27.9323 38.1667 28.0397 38.553 28.0397 39.1573V39.3935H29.703L29.6961 39.1848C29.6961 38.0111 29.4847 37.2291 29.0688 36.8336C28.6495 36.4399 27.8178 36.2422 26.5738 36.2422C24.8619 36.2422 23.7391 36.4821 23.2002 36.9618C22.663 37.4434 22.3945 38.4449 22.3945 39.9684C22.3945 42.5558 22.5938 44.1469 22.9888 44.742C23.3856 45.337 24.446 45.6337 26.1683 45.6337Z" fill="#3C6F9E"/>
<path d="M32.0108 45.5565L33.2704 43.3391C33.5529 42.8484 33.8041 42.3814 34.0259 41.9384L34.2113 41.574H34.2372L34.4226 41.9329L34.6011 42.2973C34.776 42.6488 34.9597 42.9967 35.152 43.3392L36.4066 45.5566H38.3507L35.5559 40.7959L38.1792 36.3281H36.2212L35.0568 38.3899C34.8505 38.7507 34.6808 39.0711 34.5439 39.3494L34.3845 39.668C34.3499 39.7394 34.2961 39.8476 34.2251 39.9922H34.1991L34.0397 39.668L33.8785 39.3421C33.7173 39.0271 33.5441 38.7067 33.3604 38.3826L32.196 36.3281H30.219L32.8805 40.7959L30.0146 45.5566H32.0108V45.5565Z" fill="#3C6F9E"/>
<path d="M4.7001 0V32.4626H0.575195V49.5583H0.575311L4.69917 53.9164L4.7001 60H47.5752V12.5415L35.7073 0H4.7001ZM41.5478 47.6832H2.34942V34.3375H41.5478V47.6832ZM36.5919 4.52596L43.2911 11.604H36.5919V4.52596Z" fill="#3C6F9E"/>
</svg>
