<svg width="295" height="60" viewBox="0 0 295 60" fill="none" xmlns="http://www.w3.org/2000/svg">
<path d="M286.592 7.47451C288.649 7.10556 288.96 8.62099 289.657 9.73347C289.825 9.98248 290.095 10.1409 290.268 10.386C290.536 10.7662 290.172 10.9667 290.092 11.147C289.827 11.8772 290.79 11.8419 290.93 12.3607C290.839 13.2401 290.775 14.1831 291.187 14.9975C291.3 15.3025 291.943 15.2006 292.212 15.5369C292.918 16.5091 293.809 22.1605 293.829 22.2381C293.92 22.578 294.681 23.9399 294.95 26.2062C295.078 27.2073 295.038 29.7997 293.897 29.9667C293.807 30.2849 293.505 30.4734 293.386 30.7738C293.212 31.3954 293.395 53.7676 291.37 54.6656C291.338 54.7871 291.314 54.9103 291.268 55.0282C290.817 55.1397 290.342 55.1514 289.884 55.0783C289.456 55.0358 289.515 54.4452 289.309 54.138C289.013 53.681 288.738 53.6441 289.035 51.3183C289.311 49.3849 289.304 47.4264 289.52 45.4874C290.165 40.1042 289.673 37.4151 288.488 33.3797C287.948 34.0073 288.013 34.5307 285.834 42.5327C283.184 52.0753 283.366 53.5569 282.178 54.2425C282.093 54.4902 282.087 54.781 281.902 54.9821C281.444 55.0896 280.948 55.1297 280.493 54.9852C280.151 54.8989 280.125 54.3639 280.014 54.0788C279.927 53.8407 279.784 53.6212 279.747 53.367C279.711 53.0849 279.824 52.8159 279.879 52.5442C279.98 52.0823 279.902 51.6025 279.997 51.1398C280.152 50.2774 280.398 49.435 280.609 48.5857C280.867 47.543 281.071 46.4886 281.302 45.4403C281.492 44.5357 281.754 43.6489 281.967 42.7499C282.202 41.7961 282.278 40.8053 282.599 39.8728C283.197 38.1256 283.209 39.3975 281.873 35.0745C281.676 34.4429 281.387 33.8813 281.71 33.1525C281.568 32.9318 281.418 32.698 281.411 32.4268C281.387 31.629 282.064 29.6648 281.923 28.2501C281.717 25.3746 281.914 17.5665 282.379 16.543C282.614 16.0127 283.558 15.9463 284.135 15.5387C284.425 14.4776 283.259 13.3441 283.586 11.8679C283.701 11.224 284.261 10.7887 284.456 10.177C284.603 9.69241 285.074 8.52353 285.65 7.96593C285.905 7.71307 286.236 7.53546 286.592 7.47451ZM285.818 15.2392C285.938 17.321 286.106 18.61 286.237 19.7136C286.73 20.7689 287.507 21.9115 287.973 22.6195C288.131 21.7906 287.941 22.327 288.452 20.6713C288.533 20.3984 288.658 20.1355 288.686 19.849C288.755 19.398 288.809 18.9417 288.953 18.5068C289.219 17.6917 289.095 17.157 289.152 16.4917C289.195 16.0598 289.079 15.6354 289.039 15.2074C288.876 15.4268 288.716 15.6484 288.497 15.8156C287.572 16.1251 286.891 15.9507 286.693 15.9127C286.204 15.6981 286.174 15.5843 285.818 15.2392ZM291.196 20.6492C291.128 20.8665 290.977 22.3731 290.973 22.4166C291 23.0448 291.107 23.2525 291.535 24.1345C292.06 25.1283 292.82 27.4789 293.058 27.9528C293.173 27.8505 293.274 27.7347 293.373 27.6171C293.643 26.9217 293.132 25.9975 292.703 25.0151C292.49 24.4279 292.409 23.8032 292.21 23.2119C292.186 23.1257 291.749 22.0101 291.701 21.7518C291.643 21.5307 291.61 21.3026 291.54 21.0849C291.466 20.9338 291.392 20.7815 291.356 20.6161C291.302 20.6265 291.248 20.6378 291.196 20.6492ZM284.111 21.8633C283.741 26.6183 283.548 32.9029 283.237 33.3014C283.26 33.3798 283.273 33.4633 283.313 33.536C283.39 33.6053 283.478 33.6614 283.561 33.7245C283.566 33.4786 283.547 33.2304 283.59 32.9871C283.891 30.829 283.843 31.2493 284.145 30.7238C284.067 30.7229 283.992 30.7233 283.917 30.7242C284.458 26.914 284.185 26.7095 284.612 24.464C284.697 23.3392 284.334 22.9979 284.111 21.8633ZM287.488 29.9245C288.742 29.8914 288.605 29.9154 290.168 29.7604C289.57 28.5266 288.987 27.2855 288.388 26.0513C288.097 27.3446 287.787 28.6332 287.488 29.9245Z" fill="#E3E3E3"/>
<path d="M273.94 5.36309C275.465 6.32927 273.96 9.24732 273.657 11.1897C272.87 12.0035 273.36 11.6445 272.319 12.517C271.829 12.1209 271.329 11.7343 270.879 11.2929C270.796 11.1253 270.741 10.9459 270.667 10.7748C270.622 10.6908 270.643 10.5941 270.643 10.504C270.688 8.9697 269.933 7.35745 270.768 5.95343C271.348 5.02677 272.98 4.74872 273.94 5.36309Z" fill="#6C757D"/>
<path d="M269.06 12.268C269.522 11.9946 269.995 11.7417 270.466 11.4844C270.499 11.5665 271.124 13.1073 271.681 14.3811C271.79 14.0515 271.894 13.7207 271.994 13.3885C271.92 13.3385 271.842 13.2928 271.776 13.2323C271.734 13.1609 271.707 13.0829 271.675 13.0072C271.888 12.8418 272.107 12.6842 272.322 12.5209C272.47 12.6629 272.62 12.8026 272.772 12.941C272.773 13.0385 272.773 13.1361 272.774 13.2336C272.688 13.2549 272.603 13.2762 272.517 13.2963C272.92 14.6111 272.771 14.8174 272.817 15.4769C272.958 14.647 273.229 13.459 273.585 12.4739C273.672 12.1897 273.818 11.9176 273.829 11.6146C274.597 11.8858 275.179 12.4918 275.907 12.8401C278.064 13.8035 278.648 13.1001 278.834 17.6505C279.021 24.3969 278.598 22.7365 276.129 26.5245C276.304 27.104 277.122 27.4295 276.998 27.8623C276.421 28.67 276.825 30.5984 277.347 33.7529C277.615 35.6139 278.258 42.0722 278.255 42.1157C278.122 45.0028 277.557 48.3083 278.07 51.0841C278.088 51.1481 278.064 51.2112 278.041 51.2713C277.68 51.396 277.641 51.3471 277.72 51.5195C278.414 52.7761 279.756 53.6694 279.974 54.9282C278.895 55.4084 277.594 54.9675 276.609 54.3305C276.389 54.0192 276.404 53.6152 276.304 53.2665C275.846 53.0379 275.298 52.9195 274.966 52.4998C275.136 50.344 274.664 48.1982 274.792 46.0424C274.844 45.5174 274.968 44.9994 274.967 44.4696C274.962 43.6524 274.8 42.8466 274.774 42.0312C274.755 41.4309 274.949 40.8388 274.872 40.2389C274.805 39.8754 274.482 39.6469 274.32 39.3317C274.141 38.9812 274.239 38.5568 274.054 38.2089C273.926 37.9503 273.679 37.7631 273.598 37.4806C273.446 36.9774 273.516 36.4432 273.412 35.9321C273.118 34.3432 272.328 32.9157 271.682 31.4529C271.238 32.4664 271.323 33.5983 271.392 34.674C271.559 37.0877 270.908 37.9752 270.809 42.551C270.764 45.0148 270.723 47.4515 271.199 49.4215C271.293 49.8455 271.375 49.8918 271.244 50.014C271.133 49.9779 271.023 49.9396 270.91 49.917C270.992 51.1829 271.915 52.308 271.596 53.4615C270.044 54.3484 268.956 53.0538 268.947 52.7036C268.851 51.5174 268.496 50.8084 268.884 50.2822C268.763 50.2369 268.601 50.2582 268.521 50.1411C267.894 49.3425 268.147 48.1794 268.022 46.9919C267.507 42.8941 267.483 38.181 267.295 35.0689C267.115 32.9094 266.363 29.1794 267.055 27.0081C267.111 26.7791 267.205 26.5562 267.224 26.3203C266.782 25.6531 265.758 24.9091 265.113 23.8589C264.302 22.5542 264.456 21.3381 264.649 19.1333C265.152 14.3299 264.851 14.6358 268.058 12.8696C268.401 12.685 268.722 12.4617 269.06 12.268ZM271.801 23.4048C271.716 23.9485 271.558 24.4779 271.45 25.0177C272.025 25.1244 272.611 25.0708 273.192 25.0817C272.92 23.7084 273.059 24.7124 272.934 23.4397C272.73 23.6334 272.526 23.8262 272.321 24.0187C272.146 23.8158 271.974 23.609 271.801 23.4048Z" fill="#6C757D"/>
<path d="M240.386 8.15994C241.432 8.53712 242.452 9.72466 242.476 10.7946C242.487 11.0307 242.031 12.4068 241.095 13.7061C240.996 13.8542 240.875 13.9878 240.792 14.1458C240.778 14.256 240.914 14.8275 240.179 15.1802C238.42 13.8689 239.28 14.5813 238.277 13.7967C238.117 13.6717 238.001 13.5024 237.84 13.3796C237.804 13.3165 237.794 13.2434 237.771 13.1759C237.608 12.6361 237.213 12.1898 237.116 11.6269C236.974 10.7743 237.271 10.4336 237.763 9.58389C238.391 8.55193 239.237 7.73981 240.386 8.15994Z" fill="#8A92A6"/>
<path d="M235.965 14.802C236.591 14.5691 237.257 14.3353 237.719 13.8281C237.804 14.2334 238.369 14.8055 238.792 15.6801C239.298 16.775 240.081 18.8631 240.096 18.9068C240.127 15.6518 240.057 16.7327 239.45 15.936C239.684 15.7005 239.922 15.4676 240.155 15.2303C240.311 15.2691 240.463 15.3235 240.609 15.3927C240.987 15.7503 240.953 15.7941 240.978 16.0501C240.95 16.1171 240.91 16.1785 240.873 16.2416C241.998 19.7987 241.865 19.9354 242.245 22.9841C242.339 23.5287 242.671 25.4907 242.694 26.1791C242.751 26.1621 242.81 26.1447 242.869 26.129C242.922 23.6077 242.711 23.0291 242.705 20.4174C242.669 20.0856 242.677 19.7461 242.579 19.4248C242.029 17.3459 241.815 16.3513 241.067 15.1384C240.969 14.9956 241 14.8128 240.98 14.6504C241.313 15.2512 242.143 15.4122 242.775 15.7888C243.364 16.1403 243.639 16.2127 243.736 17.2381C243.841 18.9919 243.16 20.2742 243.786 23.1622C244.103 24.6868 245.287 25.9458 245.462 27.2883C245.586 28.4004 245.347 29.448 244.351 29.9683C244.275 30.3553 244.193 30.7667 243.933 31.0771C243.595 31.4877 243.526 30.9697 243.237 30.9286C243.024 31.3248 243.044 31.791 243.13 32.2194C243.401 33.805 243.128 33.0125 242.966 34.5275C242.804 36.2739 243.018 36.6132 242.819 41.1403C242.674 43.3253 242.425 43.5317 242.392 44.6627C242.351 46.073 242.904 47.7132 242.914 49.2768C242.942 50.3969 242.774 51.5408 243.326 52.1444C243.816 52.6303 244.98 52.2934 245.611 53.6846C245.277 54.2875 242.214 54.5011 241.284 53.5457C240.565 53.8444 239.997 53.6236 239.2 53.4704C239.671 50.6576 238.933 48.1791 238.644 45.6809C238.366 45.6813 238.088 45.68 237.81 45.6818C238.079 47.6483 238.887 50.5031 237.987 52.0416C237.935 52.14 237.844 52.2171 237.807 52.3233C237.819 52.5483 237.965 52.746 237.95 52.9763C237.931 53.5191 237.731 54.0411 237.741 54.5875C237.227 55.2229 235.906 55.285 235.166 54.796C235.122 54.3981 234.999 53.9897 235.115 53.5932C235.203 53.2784 235.506 53.056 235.517 52.7155C235.523 52.3877 235.394 52.0795 235.325 51.7639C235.211 51.2898 235.248 50.7922 235.11 50.3229C234.944 49.7352 234.645 49.1892 234.535 48.5846C234.346 47.5106 234.562 46.4048 234.327 45.3348C232.682 45.333 231.036 45.3343 229.39 45.3343C229.39 42.1812 229.39 39.028 229.39 35.8753C230.385 35.8749 231.38 35.8731 232.374 35.8762C232.747 34.9781 233.467 34.4995 233.154 33.3068C233.212 30.9188 233.282 27.3313 233.125 24.9444C233.04 23.2196 233.008 16.7951 234.297 15.6495C234.779 15.2408 235.382 15.0222 235.965 14.802ZM233.157 35.0966C233.172 35.4577 232.926 35.4559 232.942 36.0822C233.321 36.0269 233.704 36.1092 234.084 36.0722C234.096 35.8371 234.088 35.6016 234.091 35.3665C233.969 35.3578 233.858 35.3107 233.78 35.2163C233.696 35.2663 233.6 35.3652 233.496 35.3055C233.351 35.2672 233.334 35.03 233.157 35.0966Z" fill="#8A92A6"/>
<path d="M255.834 7.1774C257.491 7.71119 257.346 10.6476 257.05 12.3749C257.03 12.582 256.34 12.9449 255.638 13.4254C255.616 13.5332 254.565 15.2246 254.538 15.2686C253.983 14.6104 253.431 13.9491 252.881 13.2874C253.075 12.9297 253.02 12.6958 252.697 12.3557C252.522 12.1482 252.306 12.8477 252.216 13.0619C251.818 12.9417 251.834 12.3845 251.434 12.2704C251.749 9.02548 252.642 6.44005 255.834 7.1774Z" fill="#001129"/>
<path d="M251.514 14.1407C251.93 14.0053 252.323 13.796 252.666 13.5234C252.757 16.4189 252.84 18.5699 252.37 21.4723C252.275 22.2193 252.19 22.9707 252.216 23.7252C253.567 23.356 254.918 22.9882 256.269 22.6221C256.267 22.5785 255.852 13.7866 255.84 13.7385C256.547 14.562 257.97 14.609 259.261 15.2766C260.37 16.563 261.475 17.8551 262.596 19.132C263.801 20.4077 264.908 21.2078 263.72 22.5737C263.404 22.9246 263.045 23.2324 262.705 23.5589C262.258 24.008 261.017 25.5686 260.397 25.6054C259.826 25.6908 259.664 25.2941 259.396 25.0513C259.549 26.0198 260.496 26.9686 260.544 27.6023C260.87 30.5404 261.463 33.4429 261.742 36.3866C260.507 36.4885 260.016 37.2704 259.005 37.4345C259.537 38.2914 259.351 39.234 259.525 40.1888C259.696 41.0469 260.199 41.7883 260.431 42.6267C260.839 44.1295 260.796 45.702 261.034 47.2322C261.432 49.4892 262.199 49.5249 262.53 50.8899C262.852 52.1603 262.857 53.4798 262.914 54.781C262.358 55.3328 261.165 55.2135 260.703 54.5524C260.303 53.9839 260.646 53.0296 260.719 51.7637C260.85 49.9311 259.514 48.1264 258.826 46.6293C258.649 46.2579 257.948 44.2684 257.686 44.238C257.319 44.985 256.858 45.6811 256.487 46.426C255.205 48.9509 255.861 50.2701 255.555 52.4606C255.461 53.1965 255.177 53.967 255.013 54.0431C254.354 54.4149 253.299 54.2483 253.021 53.66C252.934 53.5218 254 50.0422 254.579 47.7224C255.311 44.8526 255.761 41.8867 255.609 38.919C255.617 38.6052 254.7 39.0762 254.302 39.1344C253.141 36.0361 252.056 32.9061 251.167 29.7181C250.879 29.5774 250.486 29.8257 250.076 29.7433C249.988 29.7207 249.867 29.6745 249.866 29.5675C249.782 28.2397 249.971 26.9158 249.993 25.5893C249.465 27.6591 249.175 30.6395 249.988 32.6083C249.907 32.7298 249.701 32.7789 249.597 32.6571C249.422 32.4712 249.358 32.1525 249.08 32.0863C248.824 32.7123 249.025 33.4359 248.708 34.0436C247.704 33.9646 248.135 32.1506 248.041 31.193C248.02 30.9952 247.582 31.0375 247.379 30.9544C247.221 30.8868 247.211 31.0084 247.478 27.3851C248.717 12.2759 248.258 15.1871 251.514 14.1407ZM258.848 19.9151C258.762 20.0984 258.625 20.2516 258.535 20.4323C258.437 20.6547 258.372 20.892 258.241 21.0988C258.066 21.3521 258.042 21.7061 258.298 22.0744C258.732 22.4684 259.348 22.6861 259.88 23.1653C260.22 22.9353 261.052 22.1828 261.288 22.0508C261.847 21.6859 261.933 21.6902 261.715 20.9747C260.976 20.2079 261.292 20.5323 260.339 19.953C260.015 19.7697 259.702 19.5572 259.347 19.4362C259.022 19.4249 259.045 19.5207 258.848 19.9151Z" fill="#001129"/>
<path d="M222.636 6.15099C224.037 5.79595 225.554 6.77219 225.499 8.3425C225.502 8.53188 225.452 8.71603 225.438 8.90409C225.457 9.13917 225.86 9.03905 225.845 9.29678C225.826 9.99504 225.731 10.5841 225.025 10.5932C224.807 11.3936 224.61 12.3754 224.941 13.1291C224.246 14.4048 223.616 14.7343 223.351 14.9605C223.394 14.9994 223.838 15.5565 223.908 15.7311C223.836 15.8521 223.748 15.9649 223.628 16.041C223.61 16.2844 223.751 16.496 223.89 16.6819C224.062 16.9553 223.936 17.2805 223.926 17.5765C224.023 17.2008 224.011 16.7981 224.168 16.439C224.37 15.8156 224.687 15.2352 224.875 14.6062C225.122 13.8491 225.036 13.6025 225.166 13.4099C225.384 13.5174 225.472 13.7634 225.659 13.9057C226.005 14.1059 228.017 14.5876 228.713 14.9901C229.518 15.4689 229.506 16.0462 229.612 16.567C230.304 20.3642 229.856 23.7793 229.895 26.9289C229.898 29.2625 230.278 30.5258 229.922 31.9806C229.899 31.9758 229.852 31.9666 229.828 31.9623C229.762 31.6739 230.11 31.5203 228.437 31.4747C228.269 31.4682 228.105 31.5178 227.939 31.5361C227.82 31.7058 227.893 31.9018 227.944 32.0802C227.818 31.9845 227.576 31.9949 227.554 31.8025C227.495 30.7703 227.588 29.7355 227.548 28.7029C227.062 29.1088 227.372 29.7256 227.394 30.3698C227.478 32.2841 227.465 33.5598 227.146 34.5442C226.963 38.1575 226.66 41.7678 226.659 45.3881C226.662 46.0724 226.794 46.7481 226.816 47.4316C226.828 48.0449 226.758 48.7101 227.091 49.2595C227.208 49.4071 227.151 49.6435 226.987 49.7318C226.839 49.832 226.609 49.8842 226.579 50.0897C226.732 51.7488 228.031 52.7769 228.042 54.6181C227.978 54.7056 227.981 54.8384 227.875 54.8928C226.987 55.5573 225.635 54.7582 225.075 53.7997C224.978 53.6386 224.835 53.5054 224.768 53.3278C224.686 53.0583 224.748 52.7623 224.633 52.5002C224.379 51.9189 223.68 51.5658 223.623 51.0962C223.463 50.1903 224.019 49.4449 224.034 48.8651C223.892 48.462 223.905 48.0289 223.925 47.6087C224.066 45.4506 224.166 46.4352 223.719 42.8657C223.457 40.7047 223.033 38.5611 222.413 36.4732C221.455 39.0562 221.257 42.4265 220.399 45.4473C218.984 50.6937 218.661 51.6421 217.762 52.5324C217.913 54.4794 215.828 55.593 214.733 54.5655C214.394 53.2379 215.544 52.2507 215.773 51.1102C215.872 50.6679 215.69 50.2299 215.715 49.7867C215.754 48.7563 216.002 47.7511 216.163 46.7367C217.108 41.235 217.179 39.8998 217.179 39.8998C217.321 39.1935 217.628 39.2068 217.637 37.9451C217.652 36.5184 217.154 35.1232 217.504 33.506C217.418 33.169 217.053 33.0149 216.911 32.7089C216.662 32.1944 217.148 31.0386 217.26 29.9741C217.4 28.5475 217.514 27.113 217.822 25.7104C217.207 26.9406 217.403 28.6172 216.919 29.9127C216.353 29.522 216.261 29.5087 215.511 29.4682C215.324 29.507 214.636 29.7508 214.409 29.988C214.58 25.2779 214.977 26.1209 215.136 24.7505C215.198 24.3221 214.873 23.9568 214.897 23.5328C214.929 23.1206 215.289 22.8215 215.316 22.4092C215.423 21.4711 215.084 20.5294 215.277 19.5956C215.458 18.8594 215.838 18.1925 216.065 17.4711C216.33 16.6074 216.429 15.7015 216.696 14.8387C217.671 14.2543 220.11 14.1035 220.691 13.5627C220.942 13.3333 221.155 13.0246 221.51 12.9497C221.383 13.9824 221.627 15.0085 221.87 16.005C221.87 16.005 221.962 17.6036 222.244 18.5495C222.273 15.8678 222.183 17.0977 222.712 16.0433C222.58 15.9332 222.427 15.8522 222.294 15.7425C222.425 15.5253 222.595 15.3355 222.742 15.1295C222.811 15.042 222.868 14.9166 222.999 14.9201C222.668 14.2841 221.933 13.9602 221.662 13.2819C221.411 12.6803 221.812 12.0421 221.645 11.4283C221.564 11.1444 221.395 10.8924 221.342 10.5994C220.518 10.5794 220.452 9.03938 220.777 9.07568C220.885 9.08788 220.992 9.11093 221.099 9.12487C220.842 7.74171 221.267 6.49914 222.636 6.15099ZM226.985 24.8C226.921 25.8244 227.048 27.1387 227.467 28.1325C227.385 27.0129 227.247 25.8932 226.985 24.8Z" fill="#ADB5BD"/>
<path d="M214.454 30.7904C214.904 30.3524 215.946 30.3154 216.362 30.7434C215.934 31.4175 216.289 32.4791 215.558 32.7869C215.48 32.3926 215.225 32.2093 215.703 32.0376C215.497 31.9332 215.547 31.665 215.542 31.4756C214.504 31.9476 215.66 33.1472 215.882 33.9383C215.367 34.1054 214.654 33.5675 214.357 33.1726C214.232 33.0154 214.003 31.9997 214 31.7969C214.018 31.4042 214.476 31.1926 214.454 30.7904Z" fill="#8A92A6"/>
<path d="M228.445 32.2383C228.824 32.2905 229.213 32.2653 229.586 32.3628C229.684 32.6754 229.897 32.95 229.925 33.2835C230.043 35.2009 227.986 35.6105 227.559 35.2417C227.481 35.0806 227.481 34.8568 227.626 34.7327C228.002 34.3862 228.543 34.516 228.621 33.7193C228.626 33.3318 228.372 33.0179 228.194 32.6953C228.179 32.6531 228.131 32.6117 228.151 32.5652C228.222 32.4351 228.331 32.3306 228.445 32.2383Z" fill="#8A92A6"/>
<path d="M16.3636 11.2344C16.2145 10.7159 16.005 10.2578 15.7351 9.86008C15.4652 9.45526 15.1349 9.11435 14.7443 8.83736C14.3608 8.55327 13.9205 8.33665 13.4233 8.1875C12.9332 8.03835 12.3899 7.96378 11.7933 7.96378C10.6783 7.96378 9.69815 8.24077 8.85298 8.79474C8.01491 9.34872 7.36151 10.1548 6.89276 11.2131C6.42401 12.2642 6.18963 13.5497 6.18963 15.0696C6.18963 16.5895 6.42045 17.8821 6.8821 18.9474C7.34375 20.0128 7.99716 20.826 8.84233 21.3871C9.6875 21.9411 10.6854 22.218 11.8359 22.218C12.88 22.218 13.7713 22.0334 14.5099 21.6641C15.2557 21.2876 15.8239 20.7585 16.2145 20.0767C16.6122 19.3949 16.8111 18.5888 16.8111 17.6584L17.7486 17.7969H12.1236V14.3239H21.2536V17.0724C21.2536 18.9901 20.8487 20.6378 20.0391 22.0156C19.2294 23.3864 18.1143 24.4446 16.6939 25.1903C15.2734 25.929 13.647 26.2983 11.8146 26.2983C9.76918 26.2983 7.9723 25.8473 6.42401 24.9453C4.87571 24.0362 3.66832 22.7472 2.80185 21.0781C1.94247 19.402 1.51278 17.4134 1.51278 15.1122C1.51278 13.3437 1.76847 11.767 2.27983 10.3821C2.7983 8.99006 3.52273 7.81108 4.45312 6.84517C5.38352 5.87926 6.46662 5.14418 7.70241 4.63991C8.93821 4.13565 10.277 3.88352 11.7188 3.88352C12.9545 3.88352 14.1051 4.06463 15.1705 4.42685C16.2358 4.78196 17.1804 5.28622 18.0043 5.93963C18.8352 6.59304 19.5135 7.37074 20.0391 8.27273C20.5646 9.16761 20.902 10.1548 21.0511 11.2344H16.3636ZM32.0907 26.3196C30.4075 26.3196 28.9586 25.9787 27.7441 25.2969C26.5368 24.608 25.6064 23.6349 24.9529 22.3778C24.2995 21.1136 23.9728 19.6186 23.9728 17.8928C23.9728 16.2095 24.2995 14.7322 24.9529 13.4609C25.6064 12.1896 26.5261 11.1989 27.7122 10.4886C28.9054 9.77841 30.3045 9.4233 31.9096 9.4233C32.9892 9.4233 33.9941 9.5973 34.9245 9.94531C35.862 10.2862 36.6788 10.8011 37.3748 11.4901C38.0779 12.179 38.6248 13.0455 39.0154 14.0895C39.4061 15.1264 39.6014 16.3409 39.6014 17.733V18.9794H25.7839V16.1669H35.3294C35.3294 15.5135 35.1873 14.9347 34.9032 14.4304C34.6191 13.9261 34.225 13.532 33.7207 13.2479C33.2235 12.9567 32.6447 12.8111 31.9842 12.8111C31.2953 12.8111 30.6845 12.9709 30.1518 13.2905C29.6262 13.603 29.2143 14.0256 28.916 14.5582C28.6177 15.0838 28.465 15.6697 28.4579 16.3161V18.9901C28.4579 19.7997 28.6071 20.4993 28.9054 21.0888C29.2108 21.6783 29.6404 22.1328 30.1944 22.4524C30.7484 22.772 31.4054 22.9318 32.1653 22.9318C32.6696 22.9318 33.1312 22.8608 33.5502 22.7188C33.9693 22.5767 34.3279 22.3636 34.6262 22.0795C34.9245 21.7955 35.1518 21.4474 35.3081 21.0355L39.5055 21.3125C39.2924 22.321 38.8556 23.2017 38.1951 23.9545C37.5417 24.7003 36.6966 25.2827 35.6596 25.7017C34.6298 26.1136 33.4402 26.3196 32.0907 26.3196ZM51.2669 9.63636V13.0455H41.4125V9.63636H51.2669ZM43.6497 5.71591H48.188V20.9716C48.188 21.3906 48.252 21.7173 48.3798 21.9517C48.5076 22.179 48.6852 22.3388 48.9125 22.4311C49.1468 22.5234 49.4167 22.5696 49.7221 22.5696C49.9352 22.5696 50.1483 22.5518 50.3613 22.5163C50.5744 22.4737 50.7377 22.4418 50.8514 22.4205L51.5652 25.7976C51.3379 25.8686 51.0183 25.9503 50.6064 26.0426C50.1944 26.142 49.6937 26.2024 49.1042 26.2237C48.0105 26.2663 47.0517 26.1207 46.2278 25.7869C45.411 25.4531 44.7754 24.9347 44.3208 24.2315C43.8663 23.5284 43.6426 22.6406 43.6497 21.5682V5.71591ZM63.9684 32.1364C63.3931 32.1364 62.8533 32.0902 62.3491 31.9979C61.8519 31.9126 61.44 31.8026 61.1133 31.6676L62.136 28.2798C62.6687 28.4432 63.1481 28.532 63.5742 28.5462C64.0075 28.5604 64.3803 28.4609 64.6928 28.2479C65.0124 28.0348 65.2717 27.6726 65.4705 27.1612L65.7369 26.4688L59.8668 9.63636H64.6396L68.0273 21.6534H68.1978L71.6175 9.63636H76.4222L70.0621 27.7685C69.7567 28.6491 69.3413 29.4162 68.8157 30.0696C68.2972 30.7301 67.6403 31.2379 66.8448 31.593C66.0494 31.9553 65.0906 32.1364 63.9684 32.1364ZM85.6108 26.3196C83.956 26.3196 82.5249 25.968 81.3175 25.2649C80.1172 24.5547 79.1903 23.5675 78.5369 22.3033C77.8835 21.032 77.5568 19.5582 77.5568 17.8821C77.5568 16.1918 77.8835 14.7145 78.5369 13.4503C79.1903 12.179 80.1172 11.1918 81.3175 10.4886C82.5249 9.77841 83.956 9.4233 85.6108 9.4233C87.2656 9.4233 88.6932 9.77841 89.8935 10.4886C91.1009 11.1918 92.0312 12.179 92.6847 13.4503C93.3381 14.7145 93.6648 16.1918 93.6648 17.8821C93.6648 19.5582 93.3381 21.032 92.6847 22.3033C92.0312 23.5675 91.1009 24.5547 89.8935 25.2649C88.6932 25.968 87.2656 26.3196 85.6108 26.3196ZM85.6321 22.804C86.3849 22.804 87.0135 22.5909 87.5178 22.1648C88.022 21.7315 88.402 21.142 88.6577 20.3963C88.9205 19.6506 89.0518 18.8018 89.0518 17.8501C89.0518 16.8984 88.9205 16.0497 88.6577 15.304C88.402 14.5582 88.022 13.9687 87.5178 13.5355C87.0135 13.1023 86.3849 12.8857 85.6321 12.8857C84.8722 12.8857 84.233 13.1023 83.7145 13.5355C83.2031 13.9687 82.8161 14.5582 82.5533 15.304C82.2976 16.0497 82.1697 16.8984 82.1697 17.8501C82.1697 18.8018 82.2976 19.6506 82.5533 20.3963C82.8161 21.142 83.2031 21.7315 83.7145 22.1648C84.233 22.5909 84.8722 22.804 85.6321 22.804ZM107.109 19.0327V9.63636H111.648V26H107.29V23.0277H107.12C106.751 23.9865 106.136 24.7571 105.277 25.3395C104.425 25.9219 103.384 26.2131 102.156 26.2131C101.062 26.2131 100.099 25.9645 99.2685 25.4673C98.4375 24.9702 97.7876 24.2635 97.3189 23.3473C96.8572 22.4311 96.6229 21.3338 96.6158 20.0554V9.63636H101.154V19.2457C101.161 20.2116 101.42 20.9751 101.932 21.5362C102.443 22.0973 103.129 22.3778 103.988 22.3778C104.535 22.3778 105.046 22.2536 105.522 22.005C105.998 21.7493 106.381 21.3729 106.673 20.8757C106.971 20.3786 107.116 19.7642 107.109 19.0327ZM115.278 26V9.63636H119.678V12.4915H119.848C120.146 11.4759 120.647 10.7088 121.35 10.1903C122.053 9.66477 122.863 9.40199 123.779 9.40199C124.007 9.40199 124.252 9.41619 124.514 9.4446C124.777 9.47301 125.008 9.51207 125.207 9.56179V13.5888C124.994 13.5249 124.699 13.468 124.323 13.4183C123.946 13.3686 123.602 13.3438 123.289 13.3438C122.622 13.3438 122.025 13.4893 121.499 13.7805C120.981 14.0646 120.569 14.4624 120.264 14.9737C119.965 15.4851 119.816 16.0746 119.816 16.7422V26H115.278ZM143.2 9.63636V13.0455H133.346V9.63636H143.2ZM135.583 5.71591H140.122V20.9716C140.122 21.3906 140.186 21.7173 140.313 21.9517C140.441 22.179 140.619 22.3388 140.846 22.4311C141.08 22.5234 141.35 22.5696 141.656 22.5696C141.869 22.5696 142.082 22.5518 142.295 22.5163C142.508 22.4737 142.671 22.4418 142.785 22.4205L143.499 25.7976C143.271 25.8686 142.952 25.9503 142.54 26.0426C142.128 26.142 141.627 26.2024 141.038 26.2237C139.944 26.2663 138.985 26.1207 138.161 25.7869C137.345 25.4531 136.709 24.9347 136.254 24.2315C135.8 23.5284 135.576 22.6406 135.583 21.5682V5.71591ZM153.438 26.3196C151.755 26.3196 150.306 25.9787 149.092 25.2969C147.884 24.608 146.954 23.6349 146.301 22.3778C145.647 21.1136 145.32 19.6186 145.32 17.8928C145.32 16.2095 145.647 14.7322 146.301 13.4609C146.954 12.1896 147.874 11.1989 149.06 10.4886C150.253 9.77841 151.652 9.4233 153.257 9.4233C154.337 9.4233 155.342 9.5973 156.272 9.94531C157.21 10.2862 158.026 10.8011 158.722 11.4901C159.426 12.179 159.972 13.0455 160.363 14.0895C160.754 15.1264 160.949 16.3409 160.949 17.733V18.9794H147.132V16.1669H156.677C156.677 15.5135 156.535 14.9347 156.251 14.4304C155.967 13.9261 155.573 13.532 155.068 13.2479C154.571 12.9567 153.992 12.8111 153.332 12.8111C152.643 12.8111 152.032 12.9709 151.499 13.2905C150.974 13.603 150.562 14.0256 150.264 14.5582C149.965 15.0838 149.813 15.6697 149.806 16.3161V18.9901C149.806 19.7997 149.955 20.4993 150.253 21.0888C150.558 21.6783 150.988 22.1328 151.542 22.4524C152.096 22.772 152.753 22.9318 153.513 22.9318C154.017 22.9318 154.479 22.8608 154.898 22.7188C155.317 22.5767 155.676 22.3636 155.974 22.0795C156.272 21.7955 156.499 21.4474 156.656 21.0355L160.853 21.3125C160.64 22.321 160.203 23.2017 159.543 23.9545C158.889 24.7003 158.044 25.2827 157.007 25.7017C155.977 26.1136 154.788 26.3196 153.438 26.3196ZM168.577 26.3089C167.533 26.3089 166.602 26.1278 165.786 25.7656C164.969 25.3963 164.323 24.853 163.847 24.1357C163.378 23.4112 163.144 22.5092 163.144 21.4297C163.144 20.5206 163.311 19.7571 163.644 19.1392C163.978 18.5213 164.433 18.0241 165.008 17.6477C165.583 17.2713 166.237 16.9872 166.968 16.7955C167.707 16.6037 168.481 16.4688 169.291 16.3906C170.242 16.2912 171.009 16.1989 171.592 16.1136C172.174 16.0213 172.597 15.8864 172.86 15.7088C173.122 15.5312 173.254 15.2685 173.254 14.9205V14.8565C173.254 14.1818 173.041 13.6598 172.615 13.2905C172.195 12.9212 171.599 12.7365 170.825 12.7365C170.008 12.7365 169.358 12.9176 168.875 13.2798C168.392 13.6349 168.073 14.0824 167.916 14.6222L163.719 14.2812C163.932 13.2869 164.351 12.4276 164.976 11.7031C165.601 10.9716 166.407 10.4105 167.394 10.0199C168.389 9.62216 169.539 9.4233 170.846 9.4233C171.755 9.4233 172.625 9.52983 173.456 9.7429C174.294 9.95597 175.036 10.2862 175.683 10.7337C176.336 11.1811 176.851 11.7564 177.227 12.4595C177.604 13.1555 177.792 13.9901 177.792 14.9631V26H173.488V23.7308H173.36C173.097 24.2422 172.746 24.6932 172.306 25.0838C171.865 25.4673 171.336 25.7692 170.718 25.9893C170.1 26.2024 169.387 26.3089 168.577 26.3089ZM169.877 23.1768C170.544 23.1768 171.134 23.0455 171.645 22.7827C172.156 22.5128 172.558 22.1506 172.849 21.696C173.14 21.2415 173.286 20.7266 173.286 20.1513V18.4148C173.144 18.5071 172.948 18.5923 172.7 18.6705C172.458 18.7415 172.185 18.8089 171.879 18.8729C171.574 18.9297 171.269 18.983 170.963 19.0327C170.658 19.0753 170.381 19.1143 170.132 19.1499C169.6 19.228 169.134 19.3523 168.737 19.5227C168.339 19.6932 168.03 19.924 167.81 20.2152C167.59 20.4993 167.48 20.8544 167.48 21.2805C167.48 21.8984 167.703 22.3707 168.151 22.6974C168.605 23.017 169.181 23.1768 169.877 23.1768ZM181.313 26V9.63636H185.638V12.5234H185.83C186.171 11.5646 186.739 10.8082 187.535 10.2543C188.33 9.70028 189.282 9.4233 190.39 9.4233C191.512 9.4233 192.467 9.70384 193.256 10.2649C194.044 10.8189 194.569 11.5717 194.832 12.5234H195.003C195.336 11.5859 195.94 10.8366 196.814 10.2756C197.694 9.70739 198.735 9.4233 199.935 9.4233C201.462 9.4233 202.702 9.9098 203.653 10.8828C204.612 11.8487 205.091 13.2195 205.091 14.995V26H200.564V15.8899C200.564 14.9808 200.322 14.299 199.839 13.8445C199.356 13.3899 198.753 13.1626 198.028 13.1626C197.204 13.1626 196.562 13.4254 196.1 13.951C195.638 14.4695 195.407 15.1548 195.407 16.0071V26H191.008V15.794C191.008 14.9915 190.777 14.3523 190.315 13.8764C189.861 13.4006 189.26 13.1626 188.515 13.1626C188.01 13.1626 187.556 13.2905 187.151 13.5462C186.753 13.7947 186.437 14.1463 186.203 14.6009C185.969 15.0483 185.851 15.5739 185.851 16.1776V26H181.313ZM5.03906 56L0.585938 39.6364H5.17756L7.71307 50.6307H7.86222L10.5043 39.6364H15.0107L17.6953 50.5668H17.8338L20.3267 39.6364H24.9077L20.4652 56H15.6605L12.848 45.7088H12.6456L9.8331 56H5.03906ZM27.3287 56V39.6364H31.867V56H27.3287ZM29.6085 37.527C28.9338 37.527 28.3549 37.3033 27.872 36.8558C27.3961 36.4013 27.1582 35.858 27.1582 35.2259C27.1582 34.6009 27.3961 34.0646 27.872 33.6172C28.3549 33.1626 28.9338 32.9354 29.6085 32.9354C30.2832 32.9354 30.8585 33.1626 31.3343 33.6172C31.8173 34.0646 32.0588 34.6009 32.0588 35.2259C32.0588 35.858 31.8173 36.4013 31.3343 36.8558C30.8585 37.3033 30.2832 37.527 29.6085 37.527ZM44.2063 39.6364V43.0455H34.3519V39.6364H44.2063ZM36.5891 35.7159H41.1275V50.9716C41.1275 51.3906 41.1914 51.7173 41.3192 51.9517C41.4471 52.179 41.6246 52.3388 41.8519 52.4311C42.0863 52.5234 42.3562 52.5696 42.6616 52.5696C42.8746 52.5696 43.0877 52.5518 43.3008 52.5163C43.5138 52.4737 43.6772 52.4418 43.7908 52.4205L44.5046 55.7976C44.2773 55.8686 43.9577 55.9503 43.5458 56.0426C43.1339 56.142 42.6332 56.2024 42.0437 56.2237C40.9499 56.2663 39.9911 56.1207 39.1673 55.7869C38.3505 55.4531 37.7148 54.9347 37.2603 54.2315C36.8058 53.5284 36.582 52.6406 36.5891 51.5682V35.7159ZM52.0526 46.5398V56H47.5142V34.1818H51.9247V42.5234H52.1165C52.4858 41.5575 53.0824 40.8011 53.9062 40.2543C54.7301 39.7003 55.7635 39.4233 57.0064 39.4233C58.1428 39.4233 59.1335 39.6719 59.9787 40.169C60.831 40.6591 61.4915 41.3658 61.9602 42.2891C62.4361 43.2053 62.6705 44.3026 62.6634 45.581V56H58.125V46.3906C58.1321 45.3821 57.8764 44.5973 57.358 44.0362C56.8466 43.4751 56.1293 43.1946 55.206 43.1946C54.5881 43.1946 54.0412 43.326 53.5653 43.5888C53.0966 43.8516 52.7273 44.2351 52.4574 44.7393C52.1946 45.2365 52.0597 45.8366 52.0526 46.5398ZM77.8764 34.1818V56H73.2635V34.1818H77.8764ZM80.8407 37.9851V34.1818H98.7598V37.9851H92.0801V56H87.5204V37.9851H80.8407ZM101.711 56V34.1818H106.324V43.1839H115.688V34.1818H120.29V56H115.688V46.9872H106.324V56H101.711ZM131.402 56.3196C129.747 56.3196 128.316 55.968 127.108 55.2649C125.908 54.5547 124.981 53.5675 124.328 52.3033C123.675 51.032 123.348 49.5582 123.348 47.8821C123.348 46.1918 123.675 44.7145 124.328 43.4503C124.981 42.179 125.908 41.1918 127.108 40.4886C128.316 39.7784 129.747 39.4233 131.402 39.4233C133.057 39.4233 134.484 39.7784 135.684 40.4886C136.892 41.1918 137.822 42.179 138.476 43.4503C139.129 44.7145 139.456 46.1918 139.456 47.8821C139.456 49.5582 139.129 51.032 138.476 52.3033C137.822 53.5675 136.892 54.5547 135.684 55.2649C134.484 55.968 133.057 56.3196 131.402 56.3196ZM131.423 52.804C132.176 52.804 132.805 52.5909 133.309 52.1648C133.813 51.7315 134.193 51.142 134.449 50.3963C134.711 49.6506 134.843 48.8018 134.843 47.8501C134.843 46.8984 134.711 46.0497 134.449 45.304C134.193 44.5582 133.813 43.9687 133.309 43.5355C132.805 43.1023 132.176 42.8857 131.423 42.8857C130.663 42.8857 130.024 43.1023 129.506 43.5355C128.994 43.9687 128.607 44.5582 128.344 45.304C128.089 46.0497 127.961 46.8984 127.961 47.8501C127.961 48.8018 128.089 49.6506 128.344 50.3963C128.607 51.142 128.994 51.7315 129.506 52.1648C130.024 52.5909 130.663 52.804 131.423 52.804ZM149.8 56.3196C148.145 56.3196 146.714 55.968 145.507 55.2649C144.307 54.5547 143.38 53.5675 142.726 52.3033C142.073 51.032 141.746 49.5582 141.746 47.8821C141.746 46.1918 142.073 44.7145 142.726 43.4503C143.38 42.179 144.307 41.1918 145.507 40.4886C146.714 39.7784 148.145 39.4233 149.8 39.4233C151.455 39.4233 152.883 39.7784 154.083 40.4886C155.29 41.1918 156.221 42.179 156.874 43.4503C157.528 44.7145 157.854 46.1918 157.854 47.8821C157.854 49.5582 157.528 51.032 156.874 52.3033C156.221 53.5675 155.29 54.5547 154.083 55.2649C152.883 55.968 151.455 56.3196 149.8 56.3196ZM149.822 52.804C150.574 52.804 151.203 52.5909 151.707 52.1648C152.211 51.7315 152.591 51.142 152.847 50.3963C153.11 49.6506 153.241 48.8018 153.241 47.8501C153.241 46.8984 153.11 46.0497 152.847 45.304C152.591 44.5582 152.211 43.9687 151.707 43.5355C151.203 43.1023 150.574 42.8857 149.822 42.8857C149.062 42.8857 148.422 43.1023 147.904 43.5355C147.393 43.9687 147.006 44.5582 146.743 45.304C146.487 46.0497 146.359 46.8984 146.359 47.8501C146.359 48.8018 146.487 49.6506 146.743 50.3963C147.006 51.142 147.393 51.7315 147.904 52.1648C148.422 52.5909 149.062 52.804 149.822 52.804ZM169.509 39.6364V43.0455H159.655V39.6364H169.509ZM161.892 35.7159H166.43V50.9716C166.43 51.3906 166.494 51.7173 166.622 51.9517C166.75 52.179 166.927 52.3388 167.155 52.4311C167.389 52.5234 167.659 52.5696 167.964 52.5696C168.177 52.5696 168.39 52.5518 168.604 52.5163C168.817 52.4737 168.98 52.4418 169.094 52.4205L169.807 55.7976C169.58 55.8686 169.26 55.9503 168.849 56.0426C168.437 56.142 167.936 56.2024 167.346 56.2237C166.253 56.2663 165.294 56.1207 164.47 55.7869C163.653 55.4531 163.018 54.9347 162.563 54.2315C162.108 53.5284 161.885 52.6406 161.892 51.5682V35.7159Z" fill="#232D42"/>
</svg>
